<?xml version="1.0" encoding="UTF-8"?>
<svg version="1.1" xmlns="http://www.w3.org/2000/svg" width="769" height="433">
<path d="M0 0 C253.77 0 507.54 0 769 0 C769 142.89 769 285.78 769 433 C515.23 433 261.46 433 0 433 C0 290.11 0 147.22 0 0 Z " fill="#FEFEFE" transform="translate(0,0)"/>
<path d="M0 0 C3.74724735 6.35402812 0.39865834 14.93464702 -1.125 21.625 C-1.68013744 24.13474307 -2.23206149 26.64519846 -2.78125 29.15625 C-2.92583145 29.81715134 -3.0704129 30.47805267 -3.21937561 31.15898132 C-4.98453798 39.28861311 -6.55369155 47.45611188 -8.125 55.625 C-8.42370745 57.17521916 -8.72245409 58.72543077 -9.02124023 60.27563477 C-9.45918501 62.54802841 -9.89710185 64.82042713 -10.33457947 67.09291077 C-11.77667398 74.57290743 -13.26733318 82.04296727 -14.78710938 89.50756836 C-15.86942214 94.85171087 -16.88733827 100.20138307 -17.83984375 105.5703125 C-18.05495605 106.75866699 -18.27006836 107.94702148 -18.49169922 109.17138672 C-18.9029475 111.45465493 -19.3024062 113.74008962 -19.68798828 116.02783203 C-19.87474121 117.05505371 -20.06149414 118.08227539 -20.25390625 119.140625 C-20.41060791 120.04458008 -20.56730957 120.94853516 -20.72875977 121.87988281 C-21.81166206 125.20184019 -23.06646317 126.97463226 -25.5625 129.4375 C-28.19469228 130.72850592 -30.63446806 131.76213809 -33.37890625 132.73046875 C-34.16463516 133.02157028 -34.95036407 133.31267181 -35.75990295 133.6125946 C-38.35543811 134.56955469 -40.95852055 135.50378779 -43.5625 136.4375 C-45.37654833 137.09995528 -47.19018157 137.76354822 -49.00341797 138.42822266 C-53.81833472 140.18761756 -58.64025572 141.9269061 -63.46481323 143.65966797 C-68.65553261 145.52433332 -73.84333088 147.39709189 -79.03125 149.26953125 C-80.0425145 149.63438629 -81.05377899 149.99924133 -82.09568787 150.37515259 C-89.90947787 153.19638314 -97.71154553 156.04703048 -105.5 158.9375 C-106.54486572 159.32526611 -107.58973145 159.71303223 -108.66625977 160.11254883 C-113.61580699 161.95454424 -118.55883601 163.8128178 -123.49609375 165.6875 C-135.70196812 170.3144129 -147.97589868 174.69115639 -160.32739258 178.91137695 C-167.84287037 181.48345704 -175.29763361 184.15902289 -182.71484375 187 C-188.34056685 189.13280426 -194.04339827 191.05852502 -199.74047852 192.9909668 C-208.55021815 195.76788066 -208.55021815 195.76788066 -215.5625 201.4375 C-217.18810673 206.3143202 -217.37181686 210.6647107 -215.25 215.3125 C-213.56509517 217.6572245 -213.56509517 217.6572245 -210.5625 219.4375 C-204.30206228 219.86517896 -198.64866952 218.85364571 -192.54272461 217.54492188 C-191.57032333 217.34319366 -190.59792206 217.14146545 -189.59605408 216.93362427 C-186.38403087 216.26534313 -183.17449768 215.5858112 -179.96484375 214.90625 C-177.69331066 214.43145307 -175.42162481 213.95738647 -173.14979553 213.48400879 C-167.14800343 212.23148132 -161.14823137 210.96953128 -155.14886475 209.70544434 C-149.19343387 208.4520574 -143.2363475 207.2065994 -137.27929688 205.9609375 C-130.30040417 204.50128558 -123.32165193 203.0409903 -116.34384155 201.57617188 C-100.83122702 198.32081825 -85.31029495 195.10880254 -69.77561951 191.96032715 C-61.34011751 190.24603993 -52.94135207 188.41245972 -44.5625 186.4375 C-39.73520898 185.32679284 -34.89965248 184.25436661 -30.0625 183.1875 C-28.82757812 182.90648437 -27.59265625 182.62546875 -26.3203125 182.3359375 C-25.13179687 182.07554687 -23.94328125 181.81515625 -22.71875 181.546875 C-21.65462891 181.30936523 -20.59050781 181.07185547 -19.49414062 180.82714844 C-15.78446723 180.33409058 -12.95448308 180.5735105 -9.75 182.5625 C-7.85978354 185.54705231 -8.19450761 188.00290434 -8.5625 191.4375 C-11.04280615 195.315971 -15.55220593 195.68278771 -19.75 196.625 C-20.49958984 196.80224609 -21.24917969 196.97949219 -22.02148438 197.16210938 C-23.86624819 197.59686263 -25.71410066 198.01847276 -27.5625 198.4375 C-27.16417969 198.93378906 -26.76585937 199.43007813 -26.35546875 199.94140625 C-25.82566406 200.62074219 -25.29585937 201.30007813 -24.75 202 C-24.22792969 202.66128906 -23.70585938 203.32257813 -23.16796875 204.00390625 C-19.49241632 209.57536406 -18.02519391 214.68298046 -18.125 221.3125 C-18.13527222 222.36522095 -18.13527222 222.36522095 -18.14575195 223.43920898 C-18.32570521 229.2684815 -19.48322612 233.53911713 -22.5625 238.4375 C-22.90152344 239.05882812 -23.24054688 239.68015625 -23.58984375 240.3203125 C-27.55364381 246.83730762 -34.14266745 250.09399435 -41.0625 252.8125 C-50.19241073 254.4428412 -59.02363142 253.88081547 -67.05078125 248.890625 C-73.83764923 243.86989779 -78.73878374 237.86386782 -80.5625 229.4375 C-81.12107207 222.00419477 -80.82574556 215.51577793 -78.5625 208.4375 C-79.21806885 208.58783691 -79.8736377 208.73817383 -80.54907227 208.89306641 C-95.63196005 212.33619651 -110.72930068 215.52263836 -125.93969727 218.34423828 C-133.25761163 219.72004272 -140.41708709 221.33747713 -147.5625 223.4375 C-147.13106689 223.98398193 -146.69963379 224.53046387 -146.25512695 225.09350586 C-138.8685598 234.44982425 -137.54690186 242.76966224 -138.5625 254.4375 C-140.4088041 262.82279777 -145.07844198 269.35684945 -152.12109375 274.1953125 C-162.92257849 280.26290366 -174.64244811 280.55982398 -186.7265625 280.53515625 C-188.11149902 280.53339638 -188.11149902 280.53339638 -189.52441406 280.53160095 C-203.85169044 280.4660294 -218.17533679 280.03057305 -232.49658203 279.63793945 C-236.73634148 279.52174099 -240.97622463 279.41106155 -245.21617126 279.30193424 C-248.53658219 279.21582913 -251.85690739 279.12671357 -255.17721558 279.03674126 C-256.73979229 278.99475979 -258.30239371 278.95368611 -259.86502075 278.9136219 C-269.45808617 278.66576163 -278.99486456 278.21357918 -288.5625 277.4375 C-288.5625 277.1075 -288.5625 276.7775 -288.5625 276.4375 C-280.04927473 275.40559391 -271.55865557 275.17388188 -262.99517822 274.99194336 C-260.38715185 274.93642828 -257.77927651 274.87603371 -255.17138672 274.81445312 C-248.69811743 274.66257985 -242.22467087 274.51891691 -235.7512207 274.375 C-230.26621113 274.25273945 -224.78129098 274.12731735 -219.29644775 273.99780273 C-216.74310039 273.93878514 -214.18968288 273.88432844 -211.63623047 273.83007812 C-203.90315813 273.6547945 -196.24937961 273.36924298 -188.5625 272.4375 C-192.20297061 270.01051959 -193.89895096 270.19174789 -198.23364258 270.19799805 C-198.90719284 270.19598389 -199.5807431 270.19396973 -200.27470398 270.19189453 C-201.73646954 270.18835095 -203.19825044 270.18911377 -204.6600132 270.19367027 C-206.97662111 270.19926607 -209.29272878 270.19010025 -211.60929871 270.1764679 C-218.19536522 270.13935455 -224.78126349 270.12078554 -231.36743164 270.13208008 C-235.39767335 270.13794364 -239.42721305 270.119609 -243.45731163 270.08619118 C-244.99022141 270.07825393 -246.52320803 270.0794915 -248.05610085 270.09021568 C-250.20589586 270.10460503 -252.35349865 270.08821203 -254.50317383 270.06518555 C-255.72434402 270.06455612 -256.94551422 270.0639267 -258.20368958 270.0632782 C-262.69534755 269.22643977 -264.32795975 267.62388952 -267.5625 264.4375 C-269.43183306 261.34903669 -269.56599989 259.62999418 -269.5 256 C-268.32442992 251.53283368 -266.76585403 249.71898461 -263.5625 246.4375 C-260.36076746 244.83663373 -257.03672941 244.93832911 -253.5625 245.4375 C-250.7524654 247.23113911 -249.05309532 248.45630935 -247.5625 251.4375 C-247.522508 253.43710012 -247.51903201 255.43797242 -247.5625 257.4375 C-247.81 256.86 -248.0575 256.2825 -248.3125 255.6875 C-249.80074784 253.00865389 -251.13513634 251.32544951 -253.5625 249.4375 C-256.51941709 248.68734805 -256.51941709 248.68734805 -259.5625 249.4375 C-262.64583333 251.35416667 -262.64583333 251.35416667 -264.5625 254.4375 C-264.5625 257.94271359 -264.43372578 260.28358149 -262.28753662 263.12615967 C-260.04879504 264.82800883 -258.75737432 264.80639526 -255.96191406 264.79394531 C-255.02953918 264.79694641 -254.09716431 264.79994751 -253.13653564 264.80303955 C-252.12726013 264.79069275 -251.11798462 264.77834595 -250.078125 264.765625 C-249.03033875 264.76375183 -247.98255249 264.76187866 -246.90301514 264.75994873 C-244.67701046 264.7532169 -242.45101784 264.73928018 -240.22509766 264.71875 C-236.86739728 264.68800271 -233.51017006 264.67781543 -230.15234375 264.671875 C-218.9199429 264.63047332 -207.75583607 264.41937159 -196.5625 263.4375 C-197.04332031 262.49390625 -197.52414062 261.5503125 -198.01953125 260.578125 C-202.1151061 252.24181569 -201.13264521 243.1117401 -198.5625 234.4375 C-199.32433594 234.48390625 -200.08617187 234.5303125 -200.87109375 234.578125 C-210.79334702 234.92497031 -217.69244475 232.83291027 -225.05859375 226.08203125 C-230.43183915 220.20635251 -231.94990307 213.85089881 -231.8359375 206.08984375 C-231.00731417 198.05219742 -226.26100007 191.88046195 -220.5625 186.4375 C-216.34375 183.4375 -216.34375 183.4375 -213.5625 183.4375 C-219.6736703 173.29712123 -225.92442603 163.2720676 -232.41357422 153.36914062 C-239.29868564 142.83199771 -245.92401711 132.13106451 -252.5625 121.4375 C-269.038584 124.57439818 -285.49406469 127.80252759 -301.9375 131.10546875 C-303.06760498 131.33145752 -304.19770996 131.55744629 -305.36206055 131.7902832 C-307.40712505 132.20385144 -309.45048123 132.62602115 -311.49145508 133.05932617 C-312.36697021 133.24342041 -313.24248535 133.42751465 -314.14453125 133.6171875 C-314.8919458 133.77815918 -315.63936035 133.93913086 -316.40942383 134.10498047 C-321.87549564 134.94915666 -326.69864181 134.32725858 -331.375 131.3125 C-335.44036275 128.00348381 -337.98455647 124.46352509 -338.9765625 119.26953125 C-339.3753159 113.17280163 -337.41481651 109.07707465 -333.5625 104.4375 C-329.22842886 100.41300537 -325.74729421 99.00534437 -319.7578125 99.09375 C-315.697292 99.72956104 -312.60929376 101.74791655 -309.5625 104.4375 C-307.43956452 107.75458668 -306.5625 109.51311828 -306.5625 113.4375 C-309.5625 112.4375 -309.5625 112.4375 -310.875 110.0625 C-313.05143281 106.67693786 -314.77589046 105.74824946 -318.5625 104.4375 C-322.76109664 104.4375 -324.96161905 105.05395897 -328.5 107.3125 C-331.54764927 111.93015041 -331.52942128 116.0630292 -330.5625 121.4375 C-328.91538313 124.83473654 -328.91538313 124.83473654 -325.5625 126.4375 C-316.20449471 128.00813509 -306.08509983 124.68733692 -297 122.6875 C-295.35891657 122.33503948 -293.71764119 121.98347148 -292.07617188 121.6328125 C-283.31703446 119.75050543 -274.58311184 117.77813752 -265.88169861 115.64361572 C-263.02613048 114.95436254 -260.51319164 114.4375 -257.5625 114.4375 C-262.20658741 106.33565968 -267.05836331 98.4061158 -272.125 90.5625 C-273.53800835 88.36474272 -274.95076394 86.16682291 -276.36328125 83.96875 C-277.06662598 82.875625 -277.7699707 81.7825 -278.49462891 80.65625 C-283.31685402 73.15020326 -288.09650593 65.61703386 -292.87792969 58.08496094 C-294.61334892 55.35758613 -296.35692261 52.63554659 -298.1015625 49.9140625 C-299.21363891 48.17193707 -300.32562213 46.42975215 -301.4375 44.6875 C-302.21528809 43.4802124 -302.21528809 43.4802124 -303.00878906 42.24853516 C-303.47768555 41.5116748 -303.94658203 40.77481445 -304.4296875 40.015625 C-304.84331543 39.37012695 -305.25694336 38.72462891 -305.68310547 38.05957031 C-306.5625 36.4375 -306.5625 36.4375 -306.5625 34.4375 C-307.81160156 34.52837891 -309.06070313 34.61925781 -310.34765625 34.71289062 C-315.05884234 35.05411177 -319.77054371 35.38772292 -324.48242188 35.71923828 C-326.50730559 35.86272639 -328.53205139 36.00817669 -330.55664062 36.15576172 C-337.2224498 36.64084783 -343.88891778 37.07415373 -350.5625 37.4375 C-351.39378418 37.48535645 -352.22506836 37.53321289 -353.08154297 37.58251953 C-355.32534508 37.69974337 -357.56662977 37.77973501 -359.8125 37.84375 C-361.67648437 37.91045898 -361.67648437 37.91045898 -363.578125 37.97851562 C-366.5625 37.4375 -366.5625 37.4375 -368.4921875 35.07617188 C-369.76471617 31.93897071 -369.72492322 30.59264875 -368.5625 27.4375 C-367.51660156 25.84619141 -367.51660156 25.84619141 -365.5625 24.4375 C-362.79547758 23.97955891 -360.20788877 23.69307879 -357.421875 23.5234375 C-356.6214679 23.46346588 -355.82106079 23.40349426 -354.99639893 23.34170532 C-352.43584101 23.15237246 -349.8744498 22.9818533 -347.3125 22.8125 C-344.76524411 22.63210354 -342.218302 22.44784696 -339.67144775 22.26187134 C-338.08787678 22.14755234 -336.50401848 22.03712316 -334.91986084 21.9312439 C-330.42758517 21.62192079 -326.01977619 21.09857618 -321.5625 20.4375 C-303.78510276 18.69233666 -303.78510276 18.69233666 -298.0234375 21.8125 C-296.10944158 24.22620913 -294.90200831 26.65836548 -293.5625 29.4375 C-292.2857714 31.57724191 -290.96282227 33.68493309 -289.63989258 35.79638672 C-288.17138511 38.15083692 -286.73670725 40.52320938 -285.30859375 42.90234375 C-282.67987466 47.26418451 -279.9569108 51.55257908 -277.18798828 55.8269043 C-273.61525155 61.34420598 -270.08761561 66.88966959 -266.5625 72.4375 C-261.25450383 80.7873012 -255.92573586 89.12306557 -250.5625 97.4375 C-243.85475357 96.25894268 -237.20068061 94.96101686 -230.5625 93.4375 C-230.2325 96.4075 -229.9025 99.3775 -229.5625 102.4375 C-231.28931437 102.94556447 -233.01907979 103.44360467 -234.75 103.9375 C-235.71292969 104.2159375 -236.67585937 104.494375 -237.66796875 104.78125 C-240.42810149 105.40702908 -242.74960708 105.48724903 -245.5625 105.4375 C-243.75103298 108.313152 -241.93813143 111.18789719 -240.125 114.0625 C-239.58456055 114.92029053 -239.04412109 115.77808105 -238.48730469 116.66186523 C-235.93570038 120.70566882 -233.37530151 124.7420055 -230.76171875 128.74609375 C-230.345271 129.38530762 -229.92882324 130.02452148 -229.49975586 130.68310547 C-228.72190248 131.87347866 -227.94029415 133.06140853 -227.15454102 134.24658203 C-224.5625 138.21729097 -224.5625 138.21729097 -224.5625 140.4375 C-222.5825 140.1075 -220.6025 139.7775 -218.5625 139.4375 C-218.56354736 140.0346582 -218.56459473 140.63181641 -218.56567383 141.24707031 C-218.23355583 148.94623731 -215.46205076 153.86713719 -211.25 160.1875 C-210.66798828 161.09371094 -210.08597656 161.99992188 -209.48632812 162.93359375 C-207.44752424 166.09685685 -205.38549804 169.24119275 -203.25244141 172.34179688 C-200.5625 176.25400782 -200.5625 176.25400782 -200.5625 178.4375 C-200.04550537 178.19588135 -199.52851074 177.9542627 -198.99584961 177.70532227 C-192.82296238 174.88414909 -186.54270607 172.57354089 -180.125 170.375 C-178.66610352 169.86743164 -178.66610352 169.86743164 -177.17773438 169.34960938 C-171.01603424 167.22162075 -164.82200968 165.25743421 -158.5625 163.4375 C-162.13714263 156.05252402 -165.95032989 148.92876427 -170.2421875 141.93359375 C-171.5625 139.4375 -171.5625 139.4375 -171.5625 136.4375 C-168.5925 136.1075 -165.6225 135.7775 -162.5625 135.4375 C-161.53189453 137.29955078 -161.53189453 137.29955078 -160.48046875 139.19921875 C-159.57035803 140.84117107 -158.66019925 142.48309676 -157.75 144.125 C-157.29818359 144.94162109 -156.84636719 145.75824219 -156.38085938 146.59960938 C-154.17004657 150.58552736 -151.94525829 154.55067502 -149.5625 158.4375 C-145.9876826 157.80494889 -142.73072572 156.86005036 -139.33203125 155.58984375 C-138.36458984 155.23212891 -137.39714844 154.87441406 -136.40039062 154.50585938 C-135.40201172 154.13267578 -134.40363281 153.75949219 -133.375 153.375 C-131.38260059 152.63118784 -129.38916017 151.89015632 -127.39453125 151.15234375 C-126.51514893 150.82355225 -125.6357666 150.49476074 -124.72973633 150.15600586 C-122.5625 149.4375 -122.5625 149.4375 -120.5625 149.4375 C-120.68367187 148.82229492 -120.80484375 148.20708984 -120.9296875 147.57324219 C-121.47783595 144.77873922 -122.02022483 141.98314835 -122.5625 139.1875 C-122.75328125 138.21941406 -122.9440625 137.25132812 -123.140625 136.25390625 C-123.32109375 135.31933594 -123.5015625 134.38476562 -123.6875 133.421875 C-123.93886719 132.13361816 -123.93886719 132.13361816 -124.1953125 130.81933594 C-124.5625 128.4375 -124.5625 128.4375 -124.5625 124.4375 C-120.1075 123.9425 -120.1075 123.9425 -115.5625 123.4375 C-115.0560186 126.14476366 -114.557149 128.85307124 -114.0625 131.5625 C-113.91941406 132.32304687 -113.77632812 133.08359375 -113.62890625 133.8671875 C-112.85937544 138.11792914 -112.39605624 142.09609197 -112.5625 146.4375 C-111.41394531 145.99019531 -110.26539063 145.54289063 -109.08203125 145.08203125 C-105.86393396 143.82904367 -102.64506356 142.57806451 -99.42578125 141.328125 C-96.4626051 140.17748982 -93.50144522 139.02203597 -90.54296875 137.859375 C-89.39441406 137.41078125 -88.24585938 136.9621875 -87.0625 136.5 C-86.0415625 136.09910156 -85.020625 135.69820312 -83.96875 135.28515625 C-81.5625 134.4375 -81.5625 134.4375 -79.5625 134.4375 C-79.624375 132.9215625 -79.624375 132.9215625 -79.6875 131.375 C-79.71169665 124.68462666 -78.52594101 118.04395261 -77.5625 111.4375 C-74.5925 111.1075 -71.6225 110.7775 -68.5625 110.4375 C-68.8925 117.0375 -69.2225 123.6375 -69.5625 130.4375 C-67.45488281 129.65503906 -65.34726562 128.87257812 -63.17578125 128.06640625 C-61.12410773 127.30761919 -59.0719661 126.55011161 -57.01977539 125.79272461 C-55.5983826 125.26736748 -54.17747697 124.74069028 -52.75708008 124.21264648 C-50.71042794 123.45205177 -48.66204667 122.69628709 -46.61328125 121.94140625 C-45.38262939 121.48580322 -44.15197754 121.0302002 -42.8840332 120.56079102 C-40.0954769 119.61774452 -37.45960458 118.92075147 -34.5625 118.4375 C-34.45292969 117.48230469 -34.34335937 116.52710938 -34.23046875 115.54296875 C-33.25760759 107.60980011 -31.95025076 100.09422077 -29.5625 92.4375 C-30.8825 92.4375 -32.2025 92.4375 -33.5625 92.4375 C-34.2225 89.7975 -34.8825 87.1575 -35.5625 84.4375 C-32.65649739 83.18085022 -30.76645416 82.4375 -27.5625 82.4375 C-25.9125 72.8675 -24.2625 63.2975 -22.5625 53.4375 C-27.36455597 54.42158239 -27.36455597 54.42158239 -32.1652832 55.41210938 C-35.02131266 55.99042952 -37.64101544 56.4375 -40.5625 56.4375 C-40.8925 53.4675 -41.2225 50.4975 -41.5625 47.4375 C-38.45908898 46.76713928 -35.35486413 46.10106663 -32.25 45.4375 C-31.36892578 45.24671875 -30.48785156 45.0559375 -29.58007812 44.859375 C-28.73251953 44.67890625 -27.88496094 44.4984375 -27.01171875 44.3125 C-25.84129028 44.06113281 -25.84129028 44.06113281 -24.6472168 43.8046875 C-22.5625 43.4375 -22.5625 43.4375 -19.5625 43.4375 C-19.53671875 42.85226563 -19.5109375 42.26703125 -19.484375 41.6640625 C-19.06318173 35.28872806 -17.94268974 29.23459656 -16.515625 23.0234375 C-16.32822754 22.19481201 -16.14083008 21.36618652 -15.94775391 20.51245117 C-15.48915973 18.48675013 -15.02626961 16.46202244 -14.5625 14.4375 C-15.7585083 14.67984375 -16.9545166 14.9221875 -18.18676758 15.171875 C-22.6197744 16.06932773 -27.05354113 16.96297529 -31.48754883 17.85546875 C-33.40735518 18.24244925 -35.32695323 18.63046459 -37.24633789 19.01953125 C-40.00352884 19.57823833 -42.76144482 20.13323272 -45.51953125 20.6875 C-46.37899857 20.86249023 -47.23846588 21.03748047 -48.12397766 21.21777344 C-48.92458115 21.37793945 -49.72518463 21.53810547 -50.55004883 21.703125 C-51.2539827 21.84524414 -51.95791656 21.98736328 -52.68318176 22.13378906 C-54.5625 22.4375 -54.5625 22.4375 -57.5625 22.4375 C-57.61148437 23.38109375 -57.66046875 24.3246875 -57.7109375 25.296875 C-58.1865544 33.46436518 -59.01851214 41.38777687 -60.5625 49.4375 C-63.5325 50.0975 -66.5025 50.7575 -69.5625 51.4375 C-68.92128726 42.37615155 -67.82769458 33.42897995 -66.5625 24.4375 C-67.43003906 24.65664062 -68.29757812 24.87578125 -69.19140625 25.1015625 C-80.44077852 27.87249821 -91.78838708 30.08569216 -103.16821289 32.24267578 C-110.63043647 33.65994368 -118.05076572 35.17628566 -125.45239258 36.88452148 C-128.55887365 37.43685523 -131.41471307 37.53715281 -134.5625 37.4375 C-134.36914062 38.27152344 -134.17578125 39.10554688 -133.9765625 39.96484375 C-133.43677034 42.2977079 -132.89911049 44.63106618 -132.36328125 46.96484375 C-131.88907267 49.02128973 -131.40946809 51.07652416 -130.91796875 53.12890625 C-130.01320622 56.97577427 -129.3053897 60.45229036 -129.5625 64.4375 C-132.65059695 66.20212683 -133.79562136 66.4375 -137.5625 66.4375 C-138.21767973 63.98133785 -138.86167096 61.52304863 -139.5 59.0625 C-139.77360352 58.04349609 -139.77360352 58.04349609 -140.05273438 57.00390625 C-141.46383919 51.51342568 -142.12421124 46.08476652 -142.5625 40.4375 C-147.80563304 41.48107017 -153.04851374 42.52589671 -158.2911377 43.57202148 C-160.13379809 43.93969323 -161.97648999 44.3072071 -163.81921387 44.67456055 C-175.79728561 47.06349479 -187.76853471 49.47497175 -199.70507812 52.06518555 C-201.00348633 52.3422937 -201.00348633 52.3422937 -202.328125 52.625 C-203.05805664 52.78355469 -203.78798828 52.94210938 -204.54003906 53.10546875 C-206.5625 53.4375 -206.5625 53.4375 -210.5625 53.4375 C-210.17392822 54.11852783 -209.78535645 54.79955566 -209.38500977 55.5012207 C-207.62892183 58.5825886 -205.8769171 61.66625901 -204.125 64.75 C-203.20750977 66.3577832 -203.20750977 66.3577832 -202.27148438 67.99804688 C-201.68818359 69.02607422 -201.10488281 70.05410156 -200.50390625 71.11328125 C-199.69481812 72.5350769 -199.69481812 72.5350769 -198.86938477 73.9855957 C-197.5625 76.4375 -197.5625 76.4375 -196.5625 79.4375 C-201.0175 80.4275 -201.0175 80.4275 -205.5625 81.4375 C-207.90284723 77.4832735 -210.2335785 73.52346494 -212.5625 69.5625 C-213.23023438 68.43457031 -213.89796875 67.30664062 -214.5859375 66.14453125 C-215.21757812 65.06816406 -215.84921875 63.99179688 -216.5 62.8828125 C-217.08652344 61.88781738 -217.67304688 60.89282227 -218.27734375 59.86767578 C-219.5625 57.4375 -219.5625 57.4375 -219.5625 55.4375 C-220.61566406 55.69144531 -221.66882813 55.94539063 -222.75390625 56.20703125 C-252.24271929 63.26947807 -252.24271929 63.26947807 -260.5625 62.4375 C-262.26953125 61.1328125 -262.26953125 61.1328125 -263.5625 59.4375 C-264 55.9375 -264 55.9375 -263.5625 52.4375 C-260.95942331 49.99763895 -258.66539864 48.97957322 -255.20654297 48.25830078 C-254.34883804 48.07427704 -253.49113312 47.8902533 -252.60743713 47.70065308 C-251.22007607 47.41957199 -251.22007607 47.41957199 -249.8046875 47.1328125 C-248.83736191 46.92858673 -247.87003632 46.72436096 -246.87339783 46.51394653 C-243.73013156 45.8532693 -240.58399273 45.20761965 -237.4375 44.5625 C-235.27288743 44.11103746 -233.10841815 43.65888735 -230.9440918 43.20605469 C-219.11439081 40.74059151 -207.27192517 38.35335068 -195.39428711 36.12939453 C-187.73478314 34.68993053 -180.11679486 33.08733979 -172.5 31.4375 C-157.06881488 28.09587654 -141.60070201 24.97395578 -126.09375 22.00390625 C-123.47911029 21.50289548 -120.86449881 21.00174485 -118.25 20.5 C-117.59243713 20.37381287 -116.93487427 20.24762573 -116.25738525 20.11761475 C-106.06313029 18.15697719 -95.90888639 16.04055897 -85.765625 13.83056641 C-74.41569997 11.37236816 -63.02849595 9.11065116 -51.63623047 6.85821533 C-40.55331445 4.66665908 -29.48610249 2.43903842 -18.49682617 -0.19165039 C-5.29011319 -3.22567878 -5.29011319 -3.22567878 0 0 Z " fill="#B2B8BA" transform="translate(563.5625,93.5625)"/>
<path d="M0 0 C4.49369188 4.36241549 7.14498419 7.77302486 7.375 14.125 C7.29896037 19.92682357 6.07445367 23.80716027 2 28 C-3.06047595 31.80884437 -7.78719954 32.78892704 -14 32 C-19.32566144 30.06931215 -22.36170988 27.06551702 -25 22 C-25 20.68 -25 19.36 -25 18 C-21.21360875 19.26213042 -20.95895404 20.65345351 -19 24 C-14.77005384 26.8199641 -10.96779552 26.79231188 -6 26 C-2.65374976 23.47323961 -1.32022153 21.96066458 0 18 C0.24747001 13.54553988 0.335339 9.89223166 -2 6 C-7.79619643 2.01511495 -16.78027161 4.91254644 -23.21801758 6.05981445 C-25.52766228 6.48999392 -27.83646555 6.92470884 -30.14453125 7.36328125 C-31.39014328 7.5965361 -32.63575531 7.82979095 -33.91911316 8.07011414 C-37.21757578 8.68861533 -40.51530947 9.31075027 -43.81274414 9.93469238 C-47.0978751 10.55534189 -50.38395034 11.17092563 -53.66992188 11.78710938 C-64.10734133 13.74657963 -74.54223758 15.71889363 -84.97277832 17.71466064 C-92.90839584 19.23288739 -100.84615 20.71257558 -108.8125 22.0625 C-116.83704067 23.434706 -124.83545437 24.89753216 -132.8203125 26.484375 C-135.62447851 26.93910462 -138.16857954 27.10684606 -141 27 C-137.31345688 24.83853406 -133.39200621 24.08113922 -129.2578125 23.22265625 C-127.64085676 22.87611573 -126.02391403 22.52951444 -124.40698242 22.18286133 C-123.1192543 21.90993759 -123.1192543 21.90993759 -121.80551147 21.63150024 C-105.20437686 18.1075274 -88.6815707 14.30570412 -72.1875 10.3125 C-56.34523134 6.48053122 -40.48996636 2.85799471 -24.5300293 -0.45092773 C-22.1701259 -0.96307892 -19.83455982 -1.53118774 -17.49609375 -2.1328125 C-10.83711597 -3.7845366 -6.01677242 -3.39127173 0 0 Z " fill="#B7BEC0" transform="translate(273,270)"/>
<path d="M0 0 C0 0.66 0 1.32 0 2 C-12.30924783 7.65875374 -24.74049244 10.47136237 -38 13 C-39.15661133 13.22123535 -40.31322266 13.4424707 -41.50488281 13.67041016 C-61.50193618 17.45688183 -81.57260395 20.83413982 -101.64453125 24.1965332 C-103.56778077 24.51991456 -105.49095962 24.84371652 -107.4140625 25.16796875 C-108.3343927 25.32306412 -109.2547229 25.47815948 -110.20294189 25.63795471 C-116.84161148 26.77005862 -123.4340145 28.05896043 -130.01708984 29.4777832 C-132.75584619 29.9572561 -135.22835429 30.10412207 -138 30 C-135.24043474 28.51417022 -132.70288266 27.57279514 -129.6484375 26.88671875 C-128.80700195 26.69343994 -127.96556641 26.50016113 -127.09863281 26.30102539 C-126.19983398 26.09856201 -125.30103516 25.89609863 -124.375 25.6875 C-117.61876965 24.12583105 -110.91547415 22.47494049 -104.25 20.5625 C-96.19928332 18.26835247 -88.08695268 16.295785 -79.94018555 14.37353516 C-73.13570073 12.76483979 -66.35653308 11.07759152 -59.58447266 9.33764648 C-18.20693943 -1.23763183 -18.20693943 -1.23763183 0 0 Z " fill="#B7BEC0" transform="translate(290,233)"/>
<path d="M0 0 C0.92232422 0.00451172 1.84464844 0.00902344 2.79492188 0.01367188 C5.05085048 0.02536062 7.30663967 0.04174545 9.5625 0.0625 C-3.20610143 13.71719126 -35.59266907 13.92382314 -53.19200134 16.96418762 C-57.85381041 17.77417682 -62.50404695 18.63459028 -67.15234375 19.51953125 C-76.11057425 21.22045756 -85.10000066 22.72910874 -94.09448242 24.22460938 C-96.89617837 24.6910257 -99.69711935 25.16180615 -102.49804688 25.6328125 C-104.30985203 25.93515842 -106.12169951 26.23725089 -107.93359375 26.5390625 C-108.75564804 26.67760651 -109.57770233 26.81615051 -110.42466736 26.95889282 C-115.75029 27.83948536 -121.06806628 28.50605765 -126.4375 29.0625 C-123.01816841 26.78294561 -119.76223731 25.98648396 -115.83203125 25.0390625 C-115.07516525 24.85161469 -114.31829926 24.66416687 -113.53849792 24.47103882 C-111.11032555 23.87098084 -108.68025052 23.2790789 -106.25 22.6875 C-104.66457887 22.29742193 -103.07929094 21.90680209 -101.49414062 21.515625 C-98.34652661 20.73945147 -95.19808831 19.96675324 -92.04907227 19.19628906 C-88.32534985 18.28353482 -84.60614335 17.35384699 -80.88833618 16.41732788 C-74.73665367 14.86794842 -68.58027473 13.38304245 -62.375 12.0625 C-55.69652802 10.60941031 -49.10719642 8.93744703 -42.51171875 7.140625 C-37.50848745 5.79764572 -32.47462217 4.5835075 -27.4375 3.375 C-26.55280029 3.16045166 -25.66810059 2.94590332 -24.7565918 2.72485352 C-16.40772545 0.737406 -8.57216591 -0.08022905 0 0 Z " fill="#B7BEBF" transform="translate(309.4375,245.9375)"/>
<path d="M0 0 C2.8125 2.4375 2.8125 2.4375 5 5 C5.33 5.33 5.66 5.66 6 6 C6.51749 11.05613183 6.73566453 15.52867093 4.4375 20.125 C1.32215252 22.52142114 -1.12454437 22.77641602 -5 23 C-4.896875 24.27875 -4.79375 25.5575 -4.6875 26.875 C-4.62949219 27.59429687 -4.57148437 28.31359375 -4.51171875 29.0546875 C-4.12606964 31.39519216 -4.12606964 31.39519216 -1 33 C-4.3 33.66 -7.6 34.32 -11 35 C-10.938125 33.68 -10.87625 32.36 -10.8125 31 C-10.78820424 25.34718585 -11.79149872 20.04562662 -12.93286133 14.53515625 C-13.61033157 11.24401147 -14 8.38304064 -14 5 C-14.99 4.67 -15.98 4.34 -17 4 C-15.02 3.34 -13.04 2.68 -11 2 C-11 2.66 -11 3.32 -11 4 C-10.34 4 -9.68 4 -9 4 C-8.67 3.01 -8.34 2.02 -8 1 C-5.11138291 -0.44430855 -3.20352299 -0.37688506 0 0 Z " fill="#8F9493" transform="translate(518,165)"/>
<path d="M0 0 C2.97551265 2.06992184 4.59918728 3.63426776 5.6328125 7.15625 C6.22046019 10.90719269 6.27634206 13.33096134 4.8125 16.875 C1.80095897 20.40577225 0.29289373 21.83544989 -4.4375 22.4375 C-8.57943996 21.92884071 -10.08374267 20.91625733 -13 18 C-15.68408645 13.97387033 -15.80610406 10.73183082 -15 6 C-11.46291036 -0.57082421 -7.00779519 -1.69153677 0 0 Z " fill="#F7F7F7" transform="translate(495,171)"/>
<path d="M0 0 C3.53133438 0.68148558 5.10904099 2.65044052 7.2265625 5.4296875 C8.82091269 8.61838789 8.61289084 11.9593933 8.2265625 15.4296875 C6.830387 18.34896354 5.50453254 20.15171746 3.2265625 22.4296875 C-0.17906508 23.05656408 -3.36536509 23.02985119 -6.7734375 22.4296875 C-10.50433304 19.38405849 -11.90868225 17.06539383 -12.7734375 12.3671875 C-12.7734375 7.41543791 -11.49690216 5.50086872 -8.4375 1.82421875 C-5.77161481 -0.40986814 -3.35795825 -0.09844177 0 0 Z " fill="#F9F9F9" transform="translate(380.7734375,194.5703125)"/>
<path d="M0 0 C2.61186115 2.04713442 3.89322379 3.82455009 5.3125 6.8125 C5.3125 7.8025 5.3125 8.7925 5.3125 9.8125 C4.6525 9.8125 3.9925 9.8125 3.3125 9.8125 C2.631875 8.636875 2.631875 8.636875 1.9375 7.4375 C0.18715223 4.61001514 -0.52841319 3.71509623 -3.6875 2.8125 C-6.72286365 2.99833859 -8.91012247 3.37198607 -11.5625 4.875 C-13.41201138 8.0602696 -13.29726895 11.28860271 -12.6875 14.8125 C-11.41811576 17.49870182 -11.41811576 17.49870182 -8.6875 18.8125 C-1.20260073 19.28785147 5.57884217 17.95431144 12.875 16.375 C19.67801886 14.93193539 26.39231783 13.54226467 33.3125 12.8125 C33.3125 14.1325 33.3125 15.4525 33.3125 16.8125 C32.45011719 16.98265625 31.58773437 17.1528125 30.69921875 17.328125 C29.47847656 17.57046875 28.25773437 17.8128125 27 18.0625 C26.33790527 18.19309814 25.67581055 18.32369629 24.99365234 18.45825195 C21.11919557 19.22893875 17.25735463 20.03934958 13.40234375 20.90234375 C12.57710205 21.08442383 11.75186035 21.26650391 10.90161133 21.45410156 C9.29946486 21.80904058 7.69891228 22.17128014 6.1003418 22.54199219 C-0.49933401 23.99209763 -6.94287738 25.20976242 -13.125 22.0625 C-16.06995882 19.4766825 -17.35468934 17.54375545 -18.09375 13.69921875 C-18.28994317 9.09685398 -17.87122756 6.4183818 -14.875 2.8125 C-10.68802921 -1.65360218 -5.62532037 -2.48560667 0 0 Z " fill="#BAC1C2" transform="translate(191.6875,215.1875)"/>
<path d="M0 0 C0.33 2.64 0.66 5.28 1 8 C0.29875 7.175 -0.4025 6.35 -1.125 5.5 C-3.77300862 2.7231939 -3.77300862 2.7231939 -7.1875 2.625 C-9.94643572 2.83776796 -9.94643572 2.83776796 -12 4 C-12.41746608 6.87364791 -12.41746608 6.87364791 -12 10 C-9.15165134 12.4808198 -5.98181518 13.33794348 -2.4375 14.4375 C1.28216797 15.64639209 3.8153702 16.58057944 6 20 C6.61984499 24.26143432 6.49311964 26.24388322 4.125 29.875 C1.56899401 32.43100599 0.78882051 32.97268627 -2.8203125 33.09765625 C-3.91085937 33.08605469 -5.00140625 33.07445312 -6.125 33.0625 C-7.22070312 33.05347656 -8.31640625 33.04445312 -9.4453125 33.03515625 C-10.28835938 33.02355469 -11.13140625 33.01195312 -12 33 C-14.125 28.375 -14.125 28.375 -13 25 C-12.319375 25.99 -11.63875 26.98 -10.9375 28 C-8.59828469 30.84047573 -8.24298539 30.97117122 -4.3125 31.4375 C-1.12861719 31.20024546 -1.12861719 31.20024546 1 30 C1 27.03 1 24.06 1 21 C0.19175781 20.82984375 -0.61648438 20.6596875 -1.44921875 20.484375 C-12.86126599 17.89635946 -12.86126599 17.89635946 -16 14 C-17.0625 10.5625 -17.0625 10.5625 -17 7 C-15.23358828 4.19810554 -13.96950178 2.48475089 -11 1 C-9.50529764 0.77412147 -8.00382898 0.59130069 -6.5 0.4375 C-5.30890625 0.31181641 -5.30890625 0.31181641 -4.09375 0.18359375 C-2 0 -2 0 0 0 Z " fill="#7F8586" transform="translate(448,170)"/>
<path d="M0 0 C-0.99 0.66 -1.98 1.32 -3 2 C-4.10875575 4.27101714 -4.99792737 6.37527839 -5.8125 8.75 C-6.03897217 9.40943604 -6.26544434 10.06887207 -6.4987793 10.74829102 C-8.65809972 17.8256426 -7.73410964 23.83161049 -6 31 C-4.68 31.33 -3.36 31.66 -2 32 C-5.63 32.66 -9.26 33.32 -13 34 C-12.67 32.35 -12.34 30.7 -12 29 C-12.09410708 20.54604707 -17.2822673 15.64638845 -23 10 C-23.52722656 9.45085937 -24.05445313 8.90171875 -24.59765625 8.3359375 C-26.16650558 6.76456797 -26.16650558 6.76456797 -29 5 C-21.57142857 2.57142857 -21.57142857 2.57142857 -18 4 C-17.89558594 4.58394531 -17.79117187 5.16789063 -17.68359375 5.76953125 C-16.89778527 8.33351205 -15.83426088 9.69047857 -14.0625 11.6875 C-13.27552734 12.59048828 -13.27552734 12.59048828 -12.47265625 13.51171875 C-11.0499857 15.10885279 -11.0499857 15.10885279 -9 16 C-7.80911014 10.61972975 -6.7080481 5.54708616 -7 0 C-3.98968256 -0.93423645 -3.13349732 -1.04449911 0 0 Z " fill="#858A8B" transform="translate(368,188)"/>
<path d="M0 0 C0.16604736 0.84763916 0.16604736 0.84763916 0.33544922 1.71240234 C0.84072772 4.26823878 1.35771005 6.82156878 1.875 9.375 C2.04902344 10.26445312 2.22304688 11.15390625 2.40234375 12.0703125 C2.66337891 13.34648437 2.66337891 13.34648437 2.9296875 14.6484375 C3.08679199 15.43395996 3.24389648 16.21948242 3.40576172 17.02880859 C3.89342859 19.20870814 3.89342859 19.20870814 6 21 C0.25 22 0.25 22 -2 22 C-2.598125 22.495 -3.19625 22.99 -3.8125 23.5 C-6.48728988 25.33414163 -7.81777933 25.48957241 -11 25 C-14.42264423 22.52809028 -14.83763887 19.49299832 -15.6875 15.5 C-16.06455078 13.78296875 -16.06455078 13.78296875 -16.44921875 12.03125 C-17 9 -17 9 -17 6 C-17.99 5.67 -18.98 5.34 -20 5 C-17.69 4.34 -15.38 3.68 -13 3 C-11.68 8.94 -10.36 14.88 -9 21 C-7.35 21 -5.7 21 -4 21 C-2.56113682 18.12227363 -3.03477452 15.81751126 -3.25 12.625 C-3.35054688 10.91183594 -3.35054688 10.91183594 -3.453125 9.1640625 C-4.01935839 5.88799791 -4.78415884 4.41836428 -7 2 C-2.25 0 -2.25 0 0 0 Z " fill="#86898C" transform="translate(409,188)"/>
<path d="M0 0 C3.53133438 0.68148558 5.10904099 2.65044052 7.2265625 5.4296875 C8.82091269 8.61838789 8.61289084 11.9593933 8.2265625 15.4296875 C6.830387 18.34896354 5.50453254 20.15171746 3.2265625 22.4296875 C-0.17906508 23.05656408 -3.36536509 23.02985119 -6.7734375 22.4296875 C-10.50433304 19.38405849 -11.90868225 17.06539383 -12.7734375 12.3671875 C-12.7734375 7.41543791 -11.49690216 5.50086872 -8.4375 1.82421875 C-5.77161481 -0.40986814 -3.35795825 -0.09844177 0 0 Z M-7.7734375 3.4296875 C-8.59541851 9.36503093 -8.0858188 14.33371627 -4.7734375 19.4296875 C-4.1134375 20.0896875 -3.4534375 20.7496875 -2.7734375 21.4296875 C0.32583069 21.10769784 0.32583069 21.10769784 3.2265625 20.4296875 C4.83754754 15.59673237 4.79628476 11.32184387 2.8515625 6.6171875 C1.43410637 3.4313602 1.43410637 3.4313602 -0.7734375 1.4296875 C-4.7408884 0.99499222 -4.7408884 0.99499222 -7.7734375 3.4296875 Z " fill="#858789" transform="translate(380.7734375,194.5703125)"/>
<path d="M0 0 C2.97551265 2.06992184 4.59918728 3.63426776 5.6328125 7.15625 C6.22425484 10.93141388 6.25884636 13.35969585 4.8125 16.9375 C2.97484325 19.02862665 1.58504106 20.01946718 -1 21 C-0.67 20.34 -0.34 19.68 0 19 C0.14851844 17.06640414 0.22130833 15.12657903 0.25 13.1875 C0.27578125 12.14980469 0.3015625 11.11210937 0.328125 10.04296875 C-0.04634487 6.57020649 -0.81650718 4.7156881 -3 2 C-6.62599422 1.58274322 -6.62599422 1.58274322 -10 2 C-10.42729677 8.72992417 -9.90706571 14.29616641 -6 20 C-3.95498632 21.26870136 -3.95498632 21.26870136 -2 22 C-5.77312005 22.35098791 -7.53511035 22.30640454 -10.75 20.1875 C-13.89600663 17.12888244 -15.30982484 15.0359659 -15.4375 10.6875 C-15.36938851 7.20813796 -14.87607487 5.22253441 -12.6875 2.5 C-8.40954671 -1.47949144 -5.53876294 -1.33694278 0 0 Z " fill="#848989" transform="translate(495,171)"/>
<path d="M0 0 C0.78375 0.04125 1.5675 0.0825 2.375 0.125 C6.24359046 5.68609878 7.44215589 10.33739219 6.375 17.125 C4.375 19.125 4.375 19.125 1.25 19.25 C-0.173125 19.188125 -0.173125 19.188125 -1.625 19.125 C-3.72078262 15.63775514 -4.06606017 12.52530426 -4.375 8.5 C-4.47296875 7.35273438 -4.5709375 6.20546875 -4.671875 5.0234375 C-4.60974975 1.18202601 -3.88274841 0.18489278 0 0 Z " fill="#F8F9F7" transform="translate(513.625,166.875)"/>
<path d="M0 0 C0.66 0.33 1.32 0.66 2 1 C2.6443525 3.82799151 3.02326331 6.66118149 3.4375 9.53125 C3.623125 10.3459375 3.80875 11.160625 4 12 C4.66 12.33 5.32 12.66 6 13 C6.37890625 15.765625 6.37890625 15.765625 6.5625 19.25 C6.5794168 26.7763836 6.5794168 26.7763836 10 33 C7.03 33.66 4.06 34.32 1 35 C1.31710937 33.63294922 1.31710937 33.63294922 1.640625 32.23828125 C2.42267942 26.732008 0.96361831 21.5415012 -0.25 16.1875 C-0.46785156 15.13884766 -0.68570312 14.09019531 -0.91015625 13.00976562 C-1.13058594 12.01009766 -1.35101563 11.01042969 -1.578125 9.98046875 C-1.77825195 9.07192139 -1.97837891 8.16337402 -2.18457031 7.22729492 C-2.87767399 4.65498314 -2.87767399 4.65498314 -6 3 C-4.03533587 1.93224776 -2.03144641 0.93446535 0 0 Z " fill="#7E8384" transform="translate(457,165)"/>
<path d="M0 0 C2.6875 0.3125 2.6875 0.3125 5 1 C4.67 2.32 4.34 3.64 4 5 C2.35 4.67 0.7 4.34 -1 4 C-1.02721176 5.89575251 -1.04649136 7.79161979 -1.0625 9.6875 C-1.07410156 10.74324219 -1.08570313 11.79898438 -1.09765625 12.88671875 C-1.00712774 15.77276751 -0.84582941 18.24017948 0 21 C0.99 21.66 1.98 22.32 3 23 C0.03 23.33 -2.94 23.66 -6 24 C-5.95875 23.0925 -5.9175 22.185 -5.875 21.25 C-5.85234178 15.75538156 -7.00961818 10.38520114 -8 5 C-8.99 4.67 -9.98 4.34 -11 4 C-9.25 2.9375 -9.25 2.9375 -7 2 C-6.319375 2.185625 -5.63875 2.37125 -4.9375 2.5625 C-4.298125 2.706875 -3.65875 2.85125 -3 3 C-2.525625 2.505 -2.05125 2.01 -1.5625 1.5 C-1.046875 1.005 -0.53125 0.51 0 0 Z " fill="#8B8F90" transform="translate(424,184)"/>
<path d="M0 0 C4.19098872 3.74983202 5.11656068 5.34968203 7 11 C-0.425 12.485 -0.425 12.485 -8 14 C-6.4655333 10.16383324 -5.15341734 7.50606439 -2.875 4.1875 C-2.33617187 3.39730469 -1.79734375 2.60710937 -1.2421875 1.79296875 C-0.83226562 1.20128906 -0.42234375 0.60960937 0 0 Z " fill="#F8FAF9" transform="translate(528,298)"/>
<path d="M0 0 C0.99 5.28 1.98 10.56 3 16 C-0.9132706 14.43469176 -3.13199262 13.35471762 -6.3125 10.875 C-7.00988281 10.33617187 -7.70726562 9.79734375 -8.42578125 9.2421875 C-8.94527344 8.83226562 -9.46476562 8.42234375 -10 8 C-8.1771376 3.8284495 -4.90446377 0 0 0 Z " fill="#F7F8F8" transform="translate(508,294)"/>
<path d="M0 0 C3.5 1.0625 3.5 1.0625 5.3125 4 C6.63043046 7.87342977 7.32423879 11.89324221 7.97265625 15.92578125 C8.35358333 18.26080155 8.35358333 18.26080155 10.5 20.0625 C7.53 20.7225 4.56 21.3825 1.5 22.0625 C1.79197266 20.77472656 1.79197266 20.77472656 2.08984375 19.4609375 C2.53919416 15.73774839 2.06090561 13.2817602 1.0625 9.6875 C0.77503906 8.62789062 0.48757813 7.56828125 0.19140625 6.4765625 C-0.03675781 5.67992187 -0.26492188 4.88328125 -0.5 4.0625 C-1.428125 3.8459375 -1.428125 3.8459375 -2.375 3.625 C-4.5 3.0625 -4.5 3.0625 -6.5 2.0625 C-3.5 0.0625 -3.5 0.0625 0 0 Z " fill="#7F8383" transform="translate(469.5,174.9375)"/>
<path d="M0 0 C1.15628906 0.74056641 1.15628906 0.74056641 2.3359375 1.49609375 C3.33882813 2.13675781 4.34171875 2.77742188 5.375 3.4375 C6.37273437 4.07558594 7.37046875 4.71367187 8.3984375 5.37109375 C10.85830521 6.96899211 10.85830521 6.96899211 13 8 C11.60344703 11.49873271 10.28739516 12.70891831 6.875 14.25 C6.15054687 14.58515625 5.42609375 14.9203125 4.6796875 15.265625 C3.84824219 15.62914062 3.84824219 15.62914062 3 16 C2.49193553 14.27318563 1.99389533 12.54342021 1.5 10.8125 C1.08234375 9.36810547 1.08234375 9.36810547 0.65625 7.89453125 C0.03322392 5.14654124 -0.12302812 2.80401584 0 0 Z " fill="#F9FAFA" transform="translate(398,346)"/>
<path d="M0 0 C3.62276315 1.3255581 6.63505348 2.94346955 9.8125 5.125 C10.60269531 5.66382813 11.39289063 6.20265625 12.20703125 6.7578125 C12.79871094 7.16773438 13.39039063 7.57765625 14 8 C10.65479742 9.93242285 7.55232518 10.5463853 3.75 11.125 C2.67234375 11.29257812 1.5946875 11.46015625 0.484375 11.6328125 C-0.33546875 11.75398438 -1.1553125 11.87515625 -2 12 C-2.17835515 7.45194365 -1.99785435 4.1205746 0 0 Z " fill="#F8F9F8" transform="translate(374,331)"/>
<path d="M0 0 C2.81484045 2.81484045 2.62757042 5.2166247 3.125 9.125 C3.29257812 10.40632813 3.46015625 11.68765625 3.6328125 13.0078125 C3.81457031 14.48894531 3.81457031 14.48894531 4 16 C-3.65178571 16.14285714 -3.65178571 16.14285714 -7 14 C-6.44010697 10.00987629 -5.24330232 7.4744948 -2.9375 4.1875 C-2.38964844 3.39730469 -1.84179688 2.60710937 -1.27734375 1.79296875 C-0.64505859 0.90544922 -0.64505859 0.90544922 0 0 Z " fill="#F8F9F9" transform="translate(512,322)"/>
<path d="M0 0 C0.99 0.66 1.98 1.32 3 2 C2.23147705 2.13051758 1.4629541 2.26103516 0.67114258 2.39550781 C-2.94877081 3.01154851 -6.56821756 3.63026293 -10.1875 4.25 C-10.84194092 4.36193695 -11.49638184 4.4738739 -12.1706543 4.58920288 C-21.65896128 6.21493477 -31.1271246 7.92208307 -40.56323242 9.83105469 C-44.4364169 10.59732789 -48.02724443 11.21625887 -52 11 C-49.29354932 9.54488299 -46.83103579 8.60657101 -43.82983398 7.96264648 C-43.01896835 7.78583847 -42.20810272 7.60903046 -41.37266541 7.42686462 C-40.50589676 7.24346024 -39.63912811 7.06005585 -38.74609375 6.87109375 C-37.4001992 6.5792495 -37.4001992 6.5792495 -36.02711487 6.2815094 C-33.16497816 5.66176182 -30.30134317 5.04930902 -27.4375 4.4375 C-24.57038122 3.82083524 -21.70360086 3.20264941 -18.83717346 2.58277893 C-17.05470949 2.19775886 -15.27179325 1.81482544 -13.48838806 1.43418884 C-12.68067459 1.26053299 -11.87296112 1.08687714 -11.04077148 0.90795898 C-10.33113754 0.75632797 -9.6215036 0.60469696 -8.8903656 0.44847107 C-2.85836522 -0.98256304 -2.85836522 -0.98256304 0 0 Z " fill="#C9CDCD" transform="translate(184,286)"/>
<path d="M0 0 C-1.14171392 3.32134957 -2.65898368 6.29652203 -4.4375 9.3125 C-4.84871094 10.00988281 -5.25992187 10.70726562 -5.68359375 11.42578125 C-6.11800781 11.94527344 -6.55242187 12.46476562 -7 13 C-7.99 13 -8.98 13 -10 13 C-11.38671875 11.57421875 -11.38671875 11.57421875 -12.6875 9.6875 C-13.12449219 9.07261719 -13.56148438 8.45773437 -14.01171875 7.82421875 C-15 6 -15 6 -15 3 C-13.0636296 2.49564306 -11.12585854 1.99666126 -9.1875 1.5 C-8.10855469 1.2215625 -7.02960938 0.943125 -5.91796875 0.65625 C-3 0 -3 0 0 0 Z " fill="#F8F9F9" transform="translate(508,319)"/>
<path d="M0 0 C1.6254308 0.14095064 3.25034051 0.28792087 4.875 0.4375 C5.77992188 0.51871094 6.68484375 0.59992188 7.6171875 0.68359375 C10 1 10 1 12 2 C10.6744419 5.62276315 9.05653045 8.63505348 6.875 11.8125 C6.06675781 12.99779297 6.06675781 12.99779297 5.2421875 14.20703125 C4.83226562 14.79871094 4.42234375 15.39039063 4 16 C2.06757715 12.65479742 1.4536147 9.55232518 0.875 5.75 C0.70742188 4.67234375 0.53984375 3.5946875 0.3671875 2.484375 C0.24601562 1.66453125 0.12484375 0.8446875 0 0 Z " fill="#F8F9F8" transform="translate(392,318)"/>
<path d="M0 0 C4.42679007 1.47559669 4.91432696 3.90057368 7 8 C7 8.66 7 9.32 7 10 C5.25183142 10.50636607 3.50137737 11.00484619 1.75 11.5 C0.77546875 11.7784375 -0.1990625 12.056875 -1.203125 12.34375 C-4 13 -4 13 -8 13 C-6.40956621 7.91061189 -3.2553049 4.12543357 0 0 Z " fill="#F7F9F8" transform="translate(408,324)"/>
<path d="M0 0 C0.28571429 7.42857143 0.28571429 7.42857143 -2 11 C-5.59758392 9.67726488 -8.63737135 8.0805802 -11.8125 5.9375 C-12.60269531 5.41027344 -13.39289062 4.88304687 -14.20703125 4.33984375 C-14.79871094 3.89769531 -15.39039063 3.45554687 -16 3 C-16 2.67 -16 2.34 -16 2 C-14.27192682 1.66104344 -12.54248026 1.32908475 -10.8125 1 C-9.84957031 0.814375 -8.88664063 0.62875 -7.89453125 0.4375 C-5.2065794 0.03122388 -2.71228981 -0.07933572 0 0 Z " fill="#FAFAFA" transform="translate(536,314)"/>
<path d="M0 0 C0.11069824 0.56509277 0.22139648 1.13018555 0.33544922 1.71240234 C0.84072772 4.26823878 1.35771005 6.82156878 1.875 9.375 C2.04902344 10.26445312 2.22304688 11.15390625 2.40234375 12.0703125 C2.57636719 12.92109375 2.75039063 13.771875 2.9296875 14.6484375 C3.08679199 15.43395996 3.24389648 16.21948242 3.40576172 17.02880859 C3.89342859 19.20870814 3.89342859 19.20870814 6 21 C4.02 21.33 2.04 21.66 0 22 C-2.7432365 17.88514526 -2.77171558 13.97730106 -3.33984375 9.12890625 C-4.01234307 5.94149825 -4.84527225 4.38957546 -7 2 C-2.25 0 -2.25 0 0 0 Z " fill="#898C8F" transform="translate(409,188)"/>
<path d="M0 0 C0.66 0.33 1.32 0.66 2 1 C2.6328125 3.14453125 2.6328125 3.14453125 3.125 5.8125 C3.29257812 6.68519531 3.46015625 7.55789063 3.6328125 8.45703125 C4 11 4 11 4 15 C-3.42857143 15.28571429 -3.42857143 15.28571429 -7 13 C-6.36610765 9.50155614 -4.94822306 7.15913124 -2.9375 4.25 C-2.38964844 3.45078125 -1.84179688 2.6515625 -1.27734375 1.828125 C-0.85582031 1.22484375 -0.43429687 0.6215625 0 0 Z " fill="#F9FAF9" transform="translate(392,348)"/>
<path d="M0 0 C0.99 4.95 1.98 9.9 3 15 C-0.9132706 13.43469176 -3.13199262 12.35471762 -6.3125 9.875 C-7.00988281 9.33617187 -7.70726562 8.79734375 -8.42578125 8.2421875 C-8.94527344 7.83226562 -9.46476562 7.42234375 -10 7 C-7.91661515 2.35318772 -5.27975244 0 0 0 Z " fill="#F9FAFA" transform="translate(388,320)"/>
<path d="M0 0 C3.62276315 1.3255581 6.63505348 2.94346955 9.8125 5.125 C10.60269531 5.66382813 11.39289063 6.20265625 12.20703125 6.7578125 C12.79871094 7.16773438 13.39039063 7.57765625 14 8 C10.59648662 10.03219488 7.6767073 10.36891039 3.75 10.625 C2.13351562 10.73714844 2.13351562 10.73714844 0.484375 10.8515625 C-0.33546875 10.90054687 -1.1553125 10.94953125 -2 11 C-1.85892253 9.54119891 -1.71197585 8.08296449 -1.5625 6.625 C-1.48128906 5.81289063 -1.40007812 5.00078125 -1.31640625 4.1640625 C-1 2 -1 2 0 0 Z " fill="#FAFBFA" transform="translate(494,306)"/>
<path d="M0 0 C10.75 6.75 10.75 6.75 13 9 C11.92456217 9.98783194 10.83926783 10.96493943 9.75 11.9375 C9.14671875 12.48277344 8.5434375 13.02804687 7.921875 13.58984375 C6 15 6 15 2 16 C1.34 10.72 0.68 5.44 0 0 Z " fill="#FAFBFA" transform="translate(518,321)"/>
<path d="M0 0 C1.62580966 0.11398665 3.25067157 0.24155659 4.875 0.375 C5.77992188 0.44460938 6.68484375 0.51421875 7.6171875 0.5859375 C10 1 10 1 12 3 C9.36 7.29 6.72 11.58 4 16 C2.14316785 12.28633571 1.48888644 9.7841109 0.875 5.75 C0.70742188 4.67234375 0.53984375 3.5946875 0.3671875 2.484375 C0.24601563 1.66453125 0.12484375 0.8446875 0 0 Z " fill="#F9FAFA" transform="translate(512,293)"/>
<path d="M0 0 C2.8125 2.4375 2.8125 2.4375 5 5 C5.33 5.33 5.66 5.66 6 6 C6.54078331 11.28371889 6.87102911 15.61179736 4 20.1875 C3.01 21.0846875 3.01 21.0846875 2 22 C1.01 21.67 0.02 21.34 -1 21 C-0.34 20.34 0.32 19.68 1 19 C1.8267699 13.03007708 1.26106648 8.16335525 -2 3 C-5.62885324 2.84850702 -5.62885324 2.84850702 -9 4 C-8.67 3.01 -8.34 2.02 -8 1 C-5.11138291 -0.44430855 -3.20352299 -0.37688506 0 0 Z " fill="#84888A" transform="translate(518,165)"/>
<path d="M0 0 C0.25 7.625 0.25 7.625 -2 11 C-6.49014624 9.50328459 -10.47848764 7.16631659 -14 4 C-14 3.34 -14 2.68 -14 2 C-9.15758367 0.66416101 -5.06562383 -0.25328119 0 0 Z " fill="#F9FAF9" transform="translate(416,339)"/>
<path d="M0 0 C-1.09097798 1.84121215 -2.19819251 3.67281256 -3.3125 5.5 C-3.92738281 6.5209375 -4.54226563 7.541875 -5.17578125 8.59375 C-5.77777344 9.3878125 -6.37976563 10.181875 -7 11 C-7.99 11 -8.98 11 -10 11 C-12.90322818 7.35022743 -14 5.74147821 -14 1 C-12.41913952 0.63495397 -10.83516093 0.28339494 -9.25 -0.0625 C-8.36828125 -0.25972656 -7.4865625 -0.45695312 -6.578125 -0.66015625 C-4.01320972 -0.99825872 -2.42908361 -0.81158635 0 0 Z " fill="#FBFBFB" transform="translate(388,346)"/>
<path d="M0 0 C1.25683594 -0.020625 2.51367188 -0.04125 3.80859375 -0.0625 C5.01386719 -0.06765625 6.21914063 -0.0728125 7.4609375 -0.078125 C8.54938965 -0.0874707 9.6378418 -0.09681641 10.75927734 -0.10644531 C13.93875385 0.28902544 15.29195775 1.11237737 17.625 3.25 C-12.9142995 3.45638953 -12.9142995 3.45638953 -24.375 2.25 C-24.375 1.92 -24.375 1.59 -24.375 1.25 C-16.24943277 0.23577826 -8.1826251 0.03420115 0 0 Z " fill="#BDC3C3" transform="translate(299.375,368.75)"/>
<path d="M0 0 C-0.33 1.32 -0.66 2.64 -1 4 C-5.46463553 4.86035857 -9.9303715 5.71466528 -14.3972168 6.56347656 C-15.91543513 6.85284597 -17.4333442 7.1438431 -18.95092773 7.43652344 C-21.13705707 7.85784237 -23.32424556 8.27322233 -25.51171875 8.6875 C-26.18587326 8.81874268 -26.86002777 8.94998535 -27.55461121 9.08520508 C-31.08438495 9.74742802 -34.40810648 10.14500495 -38 10 C-35.16578591 8.46754468 -32.53994781 7.53198891 -29.40234375 6.81640625 C-28.52296143 6.61233154 -27.6435791 6.40825684 -26.73754883 6.19799805 C-25.81353271 5.98828369 -24.8895166 5.77856934 -23.9375 5.5625 C-17.20331393 4.00242797 -10.50670328 2.39826682 -3.86328125 0.48046875 C-2 0 -2 0 0 0 Z " fill="#C1C7C8" transform="translate(190,253)"/>
<path d="M0 0 C-4.74959005 0.8600269 -9.50015818 1.71434926 -14.25170898 2.56347656 C-15.86689715 2.85293797 -17.48181054 3.14393709 -19.09643555 3.43652344 C-21.42165156 3.85759736 -23.74781018 4.27307219 -26.07421875 4.6875 C-26.79212082 4.81874268 -27.51002289 4.94998535 -28.24967957 5.08520508 C-31.8758274 5.72546874 -35.31620263 6.15074363 -39 6 C-34.32928203 2.88618802 -29.02135131 2.10084576 -23.60327148 0.8034668 C-21.57048395 0.31442077 -19.54218341 -0.19081416 -17.51367188 -0.69726562 C-16.23169922 -1.00728516 -14.94972656 -1.31730469 -13.62890625 -1.63671875 C-12.45400635 -1.92248779 -11.27910645 -2.20825684 -10.06860352 -2.50268555 C-5.51437484 -3.24076843 -3.81349866 -2.54233244 0 0 Z " fill="#C2C7C8" transform="translate(222,269)"/>
<path d="M0 0 C5.91285582 -0.52793356 9.38584508 0.10106575 14.30078125 3.5 C16.77407657 5.68332276 17.92521018 7.90997926 19 11 C19 11.99 19 12.98 19 14 C16 13 16 13 14.8125 10.6875 C12.28797898 6.94424469 9.07163583 5.73117058 5 4 C5 3.34 5 2.68 5 2 C3.35 1.67 1.7 1.34 0 1 C0 0.67 0 0.34 0 0 Z " fill="#BBC1C2" transform="translate(238,193)"/>
<path d="M0 0 C0.66 0.33 1.32 0.66 2 1 C2.6328125 3.94140625 2.6328125 3.94140625 3.125 7.5625 C3.29257812 8.76003906 3.46015625 9.95757812 3.6328125 11.19140625 C3.75398438 12.11824219 3.87515625 13.04507813 4 14 C2.68 14.33 1.36 14.66 0 15 C-1.11067648 12.40842155 -1.98295969 10.10467617 -2.4375 7.3125 C-2.81199284 4.63612496 -2.81199284 4.63612496 -6 3 C-4.03533587 1.93224776 -2.03144641 0.93446535 0 0 Z " fill="#8A8D8F" transform="translate(457,165)"/>
<path d="M0 0 C0 0.66 0 1.32 0 2 C0.66 2 1.32 2 2 2 C2 5.96 2 9.92 2 14 C1.01 14.33 0.02 14.66 -1 15 C-2.13764351 10.73383684 -3 7.43513689 -3 3 C-3.99 2.67 -4.98 2.34 -6 2 C-2.25 0 -2.25 0 0 0 Z " fill="#838889" transform="translate(507,167)"/>
<path d="M0 0 C1.13186415 1.69779622 2.23762993 3.41585237 3.25 5.1875 C4.9515129 7.35052249 4.9515129 7.35052249 8.1875 7.25 C9.115625 7.1675 10.04375 7.085 11 7 C11.33 6.01 11.66 5.02 12 4 C12.33 4.99 12.66 5.98 13 7 C10.53942818 9.46057182 9.59278095 9.37747115 6.1875 9.5 C1.58831169 9.44675325 1.58831169 9.44675325 -0.76953125 7.65625 C-2.125 6 -2.125 6 -4 3 C-2.68 2.67 -1.36 2.34 0 2 C0 1.34 0 0.68 0 0 Z " fill="#898C8E" transform="translate(373,208)"/>
<path d="M0 0 C2.9375 2.25 2.9375 2.25 5 5 C4.8125 7.3125 4.8125 7.3125 4 9 C1 8 1 8 -0.375 5.4375 C-0.91125 4.633125 -1.4475 3.82875 -2 3 C-4.88185107 2.5782657 -6.39722303 2.69861151 -9 4 C-8.67 3.01 -8.34 2.02 -8 1 C-5.11138291 -0.44430855 -3.20352299 -0.37688506 0 0 Z " fill="#838688" transform="translate(518,165)"/>
<path d="M0 0 C0.33 2.64 0.66 5.28 1 8 C0.29875 7.175 -0.4025 6.35 -1.125 5.5 C-3.77300862 2.7231939 -3.77300862 2.7231939 -7.1875 2.625 C-9.94643572 2.83776796 -9.94643572 2.83776796 -12 4 C-12.65555119 6.52733235 -12.65555119 6.52733235 -13 9 C-13.66 8.67 -14.32 8.34 -15 8 C-15.66 9.32 -16.32 10.64 -17 12 C-16.77273233 8.06069365 -16.580354 5.68917038 -14 2.625 C-9.51687943 0.19664302 -5.03434574 0 0 0 Z " fill="#919394" transform="translate(448,170)"/>
<path d="M0 0 C1.093125 0.226875 2.18625 0.45375 3.3125 0.6875 C5.4375 5.3125 5.4375 5.3125 4.3125 8.6875 C3.3225 8.6875 2.3325 8.6875 1.3125 8.6875 C-0.1725 5.7175 -0.1725 5.7175 -1.6875 2.6875 C-3.3375 2.6875 -4.9875 2.6875 -6.6875 2.6875 C-4.58035839 -0.41123767 -3.86755884 -0.32775922 0 0 Z " fill="#7E8183" transform="translate(469.6875,175.3125)"/>
<path d="M0 0 C0.12375 0.639375 0.2475 1.27875 0.375 1.9375 C0.58125 2.618125 0.7875 3.29875 1 4 C1.66 4.33 2.32 4.66 3 5 C0.54438955 7.80641195 -1.27382327 8.93578671 -5.00390625 9.265625 C-8.01123516 9.25142274 -10.99779002 9.17237569 -14 9 C-16.125 4.375 -16.125 4.375 -15 1 C-14.319375 1.99 -13.63875 2.98 -12.9375 4 C-10.59828469 6.84047573 -10.24298539 6.97117122 -6.3125 7.4375 C-3.12861719 7.20024546 -3.12861719 7.20024546 -1 6 C-0.34227572 2.97065509 -0.34227572 2.97065509 0 0 Z " fill="#888A8B" transform="translate(450,194)"/>
<path d="M0 0 C0.33 0 0.66 0 1 0 C1.12117188 0.77085937 1.24234375 1.54171875 1.3671875 2.3359375 C1.53476562 3.33882812 1.70234375 4.34171875 1.875 5.375 C2.03742188 6.37273437 2.19984375 7.37046875 2.3671875 8.3984375 C2.7958802 11.1425115 2.7958802 11.1425115 5 13 C2.03 13.66 -0.94 14.32 -4 15 C-3.67 14.278125 -3.34 13.55625 -3 12.8125 C-1.99396471 9.98302573 -1.83022598 7.97104534 -2 5 C-1.34 5 -0.68 5 0 5 C0 3.35 0 1.7 0 0 Z " fill="#888B8C" transform="translate(462,185)"/>
<path d="M0 0 C-0.33 1.65 -0.66 3.3 -1 5 C-2.8125 5.6875 -2.8125 5.6875 -5 6 C-6.5625 4.6875 -6.5625 4.6875 -8 3 C-8.99 2.34 -9.98 1.68 -11 1 C-3.57142857 -1.42857143 -3.57142857 -1.42857143 0 0 Z " fill="#8F9193" transform="translate(350,192)"/>
<path d="M0 0 C2.3125 0.125 2.3125 0.125 5 1 C6.05008653 2.97416268 7.04987876 4.97582866 8 7 C10.05093145 8.40466953 10.05093145 8.40466953 12 9 C8.28801837 9.34530062 6.42716122 9.25629673 3.1875 7.3125 C0.79660671 4.78498424 0.2846076 3.41529114 0 0 Z " fill="#7F8384" transform="translate(481,184)"/>
<path d="M0 0 C0.33 3.3 0.66 6.6 1 10 C-0.32 9.34 -1.64 8.68 -3 8 C-3.75 5.375 -3.75 5.375 -4 3 C-4.99 2.67 -5.98 2.34 -7 2 C-4.35261084 0.5393715 -3.10551666 0 0 0 Z " fill="#828586" transform="translate(420,186)"/>
<path d="M0 0 C0.94875 0.350625 1.8975 0.70125 2.875 1.0625 C2.875 1.3925 2.875 1.7225 2.875 2.0625 C-6.365 2.0625 -15.605 2.0625 -25.125 2.0625 C-25.125 1.7325 -25.125 1.4025 -25.125 1.0625 C-24.52961426 1.03744385 -23.93422852 1.0123877 -23.32080078 0.98657227 C-20.63030864 0.87072506 -17.9401766 0.74794804 -15.25 0.625 C-14.31285156 0.58568359 -13.37570312 0.54636719 -12.41015625 0.50585938 C-11.51425781 0.46396484 -10.61835938 0.42207031 -9.6953125 0.37890625 C-8.45418701 0.32391968 -8.45418701 0.32391968 -7.18798828 0.26782227 C-1.12026066 -0.3360782 -1.12026066 -0.3360782 0 0 Z " fill="#C3C8C9" transform="translate(314.125,369.9375)"/>
<path d="M0 0 C0.33 0 0.66 0 1 0 C1.33 2.31 1.66 4.62 2 7 C3.32 7.33 4.64 7.66 6 8 C2.37 8.66 -1.26 9.32 -5 10 C-4.360625 9.0925 -3.72125 8.185 -3.0625 7.25 C-1.38571047 4.60778619 -0.46310002 3.0101501 0 0 Z " fill="#909394" transform="translate(360,212)"/>
<path d="M0 0 C0.1875 3.375 0.1875 3.375 0 7 C-0.99 7.66 -1.98 8.32 -3 9 C-3.33 7.02 -3.66 5.04 -4 3 C-4.99 2.67 -5.98 2.34 -7 2 C-2.25 0 -2.25 0 0 0 Z " fill="#808585" transform="translate(396,191)"/>
<path d="M0 0 C0.33 2.64 0.66 5.28 1 8 C0.34 7.34 -0.32 6.68 -1 6 C-1.99 6 -2.98 6 -4 6 C-5.6875 4 -5.6875 4 -7 2 C-2.25 0 -2.25 0 0 0 Z " fill="#8A8F90" transform="translate(409,188)"/>
<path d="M0 0 C2.29013653 3.4352048 2.17842973 4.985331 2 9 C0.68 9 -0.64 9 -2 9 C-2.25 3.375 -2.25 3.375 0 0 Z " fill="#7A7F80" transform="translate(371,201)"/>
<path d="M0 0 C0.66 0.33 1.32 0.66 2 1 C-2.30769231 5.92307692 -2.30769231 5.92307692 -5.8125 6.3125 C-6.8953125 6.1578125 -6.8953125 6.1578125 -8 6 C-8.66 4.68 -9.32 3.36 -10 2 C-9.34 2 -8.68 2 -8 2 C-8 2.66 -8 3.32 -8 4 C-5.64828869 3.40138258 -3.3140622 2.73075648 -1 2 C-0.67 1.34 -0.34 0.68 0 0 Z " fill="#979A9B" transform="translate(406,207)"/>
<path d="M0 0 C0 1.98 0 3.96 0 6 C-0.99 6 -1.98 6 -3 6 C-3.33 6.66 -3.66 7.32 -4 8 C-4.33 5.69 -4.66 3.38 -5 1 C-3 0 -3 0 0 0 Z " fill="#8B8F8F" transform="translate(476,183)"/>
<path d="M0 0 C0.66 0.99 1.32 1.98 2 3 C2.66 3 3.32 3 4 3 C4.33 2.01 4.66 1.02 5 0 C5.33 0.99 5.66 1.98 6 3 C6.99 3.66 7.98 4.32 9 5 C5.7 5.66 2.4 6.32 -1 7 C-0.67 4.69 -0.34 2.38 0 0 Z " fill="#9A9D9E" transform="translate(508,193)"/>
<path d="M0 0 C2.50037734 2.17424117 3.43628586 3.73045798 4 7 C2.0625 7.5625 2.0625 7.5625 0 8 C-1 7 -1 7 -1.125 4 C-1 1 -1 1 0 0 Z " fill="#757A7D" transform="translate(433,177)"/>
<path d="M0 0 C0.33 0.66 0.66 1.32 1 2 C1.66 2 2.32 2 3 2 C3 3.98 3 5.96 3 8 C2.01 8.33 1.02 8.66 0 9 C-0.87890625 2.84765625 -0.87890625 2.84765625 -1 1 C-0.67 0.67 -0.34 0.34 0 0 Z " fill="#747A7A" transform="translate(509,188)"/>
<path d="M0 0 C0.66 0.99 1.32 1.98 2 3 C0 5 0 5 -2.3828125 5.1953125 C-3.28773438 5.17210937 -4.19265625 5.14890625 -5.125 5.125 C-6.49011719 5.09792969 -6.49011719 5.09792969 -7.8828125 5.0703125 C-8.58148438 5.04710937 -9.28015625 5.02390625 -10 5 C-10 4.01 -10 3.02 -10 2 C-6.7 2.33 -3.4 2.66 0 3 C0 2.01 0 1.02 0 0 Z " fill="#909493" transform="translate(384,212)"/>
<path d="M0 0 C3.39914975 1.13304992 4.05254451 2.12518475 6 5 C4.02 5.33 2.04 5.66 0 6 C-0.38218767 4.34385343 -0.71395102 2.67542976 -1 1 C-0.67 0.67 -0.34 0.34 0 0 Z " fill="#767B7D" transform="translate(409,204)"/>
<path d="M0 0 C0.33 0.99 0.66 1.98 1 3 C0.34 3.66 -0.32 4.32 -1 5 C-1.66 4.01 -2.32 3.02 -3 2 C-6.08365871 1.7497843 -6.08365871 1.7497843 -9 2 C-9.33 1.34 -9.66 0.68 -10 0 C-6.30581799 -1.231394 -3.7943739 -0.64432764 0 0 Z " fill="#96999A" transform="translate(495,171)"/>
<path d="M0 0 C0.33 0 0.66 0 1 0 C0.67 2.64 0.34 5.28 0 8 C-0.99 8.33 -1.98 8.66 -3 9 C-3 7.02 -3 5.04 -3 3 C-2.01 3.33 -1.02 3.66 0 4 C0 2.68 0 1.36 0 0 Z " fill="#7D7F82" transform="translate(388,205)"/>
<path d="M0 0 C1.67542976 0.28604898 3.34385343 0.61781233 5 1 C4.67 2.32 4.34 3.64 4 5 C3.01 4.67 2.02 4.34 1 4 C1 3.34 1 2.68 1 2 C0.34 1.67 -0.32 1.34 -1 1 C-0.67 0.67 -0.34 0.34 0 0 Z " fill="#7F8183" transform="translate(424,184)"/>
<path d="M0 0 C0 1.98 0 3.96 0 6 C-0.99 6.33 -1.98 6.66 -3 7 C-3.33 5.02 -3.66 3.04 -4 1 C-1 0 -1 0 0 0 Z " fill="#767D7C" transform="translate(509,175)"/>
<path d="M0 0 C0.33 2.64 0.66 5.28 1 8 C-1.33333333 5.66666667 -3.66666667 3.33333333 -6 1 C-3.92446352 0.4465236 -2.15634036 0 0 0 Z " fill="#8B8C8F" transform="translate(448,170)"/>
<path d="M0 0 C0.99 0 1.98 0 3 0 C3 1.65 3 3.3 3 5 C2.34 4.34 1.68 3.68 1 3 C0.34 4.98 -0.32 6.96 -1 9 C-1.33 9 -1.66 9 -2 9 C-1.125 1.125 -1.125 1.125 0 0 Z " fill="#999C9D" transform="translate(370,199)"/>
<path d="M0 0 C0.66 0.33 1.32 0.66 2 1 C1.34 3.31 0.68 5.62 0 8 C-0.99 7.67 -1.98 7.34 -3 7 C-2.25 2.25 -2.25 2.25 0 0 Z " fill="#7B7F7F" transform="translate(484,172)"/>
<path d="M0 0 C1.3921875 0.0928125 1.3921875 0.0928125 2.8125 0.1875 C2.8125 0.8475 2.8125 1.5075 2.8125 2.1875 C-1.6425 2.6825 -1.6425 2.6825 -6.1875 3.1875 C-3.1875 0.1875 -3.1875 0.1875 0 0 Z " fill="#B9C1C0" transform="translate(170.1875,287.8125)"/>
<path d="M0 0 C2.475 0.495 2.475 0.495 5 1 C4.67 2.32 4.34 3.64 4 5 C3.01 4.67 2.02 4.34 1 4 C0.3125 1.9375 0.3125 1.9375 0 0 Z " fill="#757A7E" transform="translate(518,169)"/>
<path d="M0 0 C0.66 0.99 1.32 1.98 2 3 C1.67 3.99 1.34 4.98 1 6 C0.01 6 -0.98 6 -2 6 C-1.125 1.125 -1.125 1.125 0 0 Z " fill="#777C7D" transform="translate(408,193)"/>
</svg>
